<?xml version="1.0" standalone="no"?>
<!DOCTYPE svg PUBLIC "-//W3C//DTD SVG 20010904//EN"
 "http://www.w3.org/TR/2001/REC-SVG-20010904/DTD/svg10.dtd">
<svg version="1.0" xmlns="http://www.w3.org/2000/svg"
 width="383.000000pt" height="420.000000pt" viewBox="0 0 383.000000 420.000000"
 preserveAspectRatio="xMidYMid meet">
<metadata>
Created by potrace 1.16, written by Peter Selinger 2001-2019
</metadata>
<g transform="translate(0.000000,420.000000) scale(0.100000,-0.100000)"
fill="#000000" stroke="none">
<path d="M395 3927 c-47 -18 -71 -39 -97 -82 l-23 -40 0 -780 0 -780 27 -47
c19 -32 41 -52 71 -67 l43 -21 1500 0 c1681 0 1534 -7 1598 73 l31 39 3 789
c2 715 1 792 -14 822 -23 45 -44 66 -86 88 -36 18 -84 19 -1530 18 -1117 0
-1501 -3 -1523 -12z m1270 -263 c279 -24 499 -69 605 -123 206 -105 -3 -218
-510 -276 -181 -20 -212 -17 -65 6 308 50 455 107 455 179 0 61 -105 110 -335
154 -191 37 -371 55 -635 64 -172 5 -216 9 -165 13 101 9 464 0 650 -17z m242
-148 c117 -10 170 -18 188 -30 14 -9 24 -20 21 -24 -2 -4 -64 0 -138 9 -154
20 -398 37 -683 48 l-200 8 325 1 c193 1 391 -4 487 -12z m596 -80 c177 -43
294 -92 317 -136 63 -118 -191 -217 -708 -275 -148 -17 -251 -19 -147 -4 419
63 635 141 635 232 0 43 -91 101 -222 141 -16 5 -16 8 -2 35 9 17 17 31 20 31
2 0 50 -11 107 -24z m-1363 -650 c0 -34 -19 -38 -173 -36 -73 1 -138 2 -144 1
-8 -1 -13 -15 -13 -36 l0 -34 88 -3 c87 -3 87 -3 90 -30 l3 -28 -90 0 -90 0
-3 -57 -3 -58 -50 0 -50 0 -1 145 c-1 80 0 148 3 153 2 4 101 7 219 7 l214 0
0 -24z m533 -121 c64 -80 117 -150 117 -155 0 -6 -22 -10 -49 -10 -45 0 -53 3
-77 35 l-26 35 -139 0 c-126 0 -139 -2 -149 -19 -20 -39 -41 -51 -86 -51 -24
0 -44 3 -44 6 0 8 221 287 234 296 6 4 32 8 57 8 l45 0 117 -145z m727 132
c15 -7 26 -23 28 -38 3 -23 -1 -27 -35 -32 -27 -5 -41 -3 -49 8 -8 11 -41 14
-145 16 l-134 1 0 -28 0 -29 172 -5 c116 -3 176 -9 184 -17 7 -7 14 -36 17
-65 3 -43 0 -58 -16 -78 -20 -25 -22 -25 -200 -28 -202 -4 -240 2 -262 41 -18
32 -9 42 42 50 30 5 37 2 41 -14 5 -18 14 -19 154 -17 l148 3 0 30 0 30 -172
5 c-94 3 -173 7 -176 10 -39 45 -32 152 12 163 9 3 95 5 191 6 123 0 182 -3
200 -12z m670 -17 l0 -30 -95 0 -94 0 -3 -122 -3 -123 -50 0 -50 0 -3 123 -3
122 -94 0 -95 0 0 30 0 30 245 0 245 0 0 -30z"/>
</g>
</svg>
