<?xml version="1.0" standalone="no"?>
<!DOCTYPE svg PUBLIC "-//W3C//DTD SVG 20010904//EN"
 "http://www.w3.org/TR/2001/REC-SVG-20010904/DTD/svg10.dtd">
<svg version="1.0" xmlns="http://www.w3.org/2000/svg"
 width="356.000000pt" height="204.000000pt" viewBox="0 0 356.000000 204.000000"
 preserveAspectRatio="xMidYMid meet">
<metadata>
Created by potrace 1.16, written by Peter Selinger 2001-2019
</metadata>
<g transform="translate(0.000000,204.000000) scale(0.100000,-0.100000)"
fill="#000000" stroke="none">
<path d="M214 1895 c-36 -18 -57 -37 -75 -67 l-24 -43 0 -780 0 -780 27 -47
c19 -32 41 -52 71 -67 l43 -21 1500 0 c1681 0 1534 -7 1598 73 l31 39 0 802 0
803 -28 36 c-16 21 -46 46 -67 57 -39 20 -61 20 -1533 20 l-1493 0 -50 -25z
m1291 -250 c459 -41 723 -130 677 -229 -22 -49 -169 -106 -362 -140 -115 -21
-366 -49 -388 -43 -11 3 -9 5 8 6 39 2 259 40 320 55 152 39 246 97 233 145
-27 106 -432 192 -978 209 -180 5 -221 9 -165 13 108 9 468 0 655 -16z m241
-149 c120 -9 169 -17 188 -30 15 -9 24 -21 21 -27 -4 -5 -9 -7 -13 -5 -22 13
-432 49 -697 60 l-310 13 325 1 c179 1 397 -5 486 -12z m597 -80 c177 -43 294
-92 317 -136 63 -117 -186 -215 -705 -275 -144 -16 -275 -20 -155 -4 397 54
640 141 640 232 0 43 -91 101 -222 141 -16 5 -16 8 -2 35 9 17 17 31 20 31 2
0 50 -11 107 -24z m-1365 -653 l-3 -28 -150 -2 c-82 -1 -156 -2 -162 -3 -8 0
-13 -14 -13 -35 l0 -34 88 -3 c87 -3 87 -3 90 -30 l3 -28 -90 0 -90 0 -3 -57
-3 -58 -50 0 -50 0 -2 144 c-1 80 0 148 3 153 3 4 102 8 220 8 l215 0 -3 -27z
m535 -118 c64 -80 117 -150 117 -155 0 -6 -22 -10 -49 -10 -45 0 -53 3 -77 35
l-26 35 -139 0 c-126 0 -139 -2 -149 -19 -20 -39 -41 -51 -86 -51 -24 0 -44 3
-44 6 0 3 53 73 118 155 l117 149 51 0 50 0 117 -145z m727 132 c15 -7 26 -23
28 -38 3 -23 -1 -27 -35 -32 -28 -5 -41 -3 -49 8 -9 12 -39 15 -148 15 l-137
0 3 -27 3 -28 173 -5 c157 -5 175 -7 188 -24 21 -29 18 -109 -5 -137 -19 -23
-24 -24 -199 -27 -202 -4 -240 2 -262 41 -18 32 -9 42 42 50 30 5 37 2 41 -14
5 -18 14 -19 154 -17 l148 3 0 30 0 30 -172 5 c-157 5 -173 7 -187 25 -29 39
-15 139 21 148 43 11 369 6 393 -6z m670 -17 l0 -30 -95 0 -94 0 -3 -122 -3
-123 -50 0 -50 0 -3 123 -3 122 -94 0 -95 0 0 30 0 30 245 0 245 0 0 -30z"/>
</g>
</svg>
